COVER
www1.picturepush.com/photo/a/8838054/1024/Ashish-rawat/Cover.jpg


SCREENSHOTS

www5.picturepush.com/photo/a/8838118/img/Ashish-rawat/1.png
www1.picturepush.com/photo/a/8838119/img/Ashish-rawat/2.png
www5.picturepush.com/photo/a/8838123/img/Ashish-rawat/3.png
www5.picturepush.com/photo/a/8838128/img/Ashish-rawat/4.png
www4.picturepush.com/photo/a/8838132/img/Ashish-rawat/5.png
www3.picturepush.com/photo/a/8838136/img/Ashish-rawat/6.png
www1.picturepush.com/photo/a/8838139/img/Ashish-rawat/7.png


INFO

Format                           : Matroska
File size                        : 2.96 GiB
Duration                         : 1h 22mn
Overall bit rate                 : 5123 Kbps
Movie name                       : The Lorax 2012

Video
ID                               : 1
Format                           : AVC
Format/Info                      : Advanced Video Codec
Duration                         : 1h 22mn
Bit rate                         : 4637 Kbps
Width                            : 1920 pixels
Height                           : 1080 pixels
Display aspect ratio             : 16:9
Frame rate                       : 25.000 fps
Color space                      : YUV
Chroma subsampling               : 4:2:0
Stream size                      : 2.68 GiB (91%)
Title                            : 1080p BluRay By Ashish7(wall.e)

Audio
ID                               : 2
Format                           : AC-3
Codec ID                         : A_AC3
Bit rate mode                    : Constant
Bit rate                         : 384 Kbps
Channel(s)                       : 6 channels
Channel positions                : Front: L C R, Side: L R, LFE
Sampling rate                    : 48.0 KHz
Bit depth                        : 16 bits
Stream size                      : 227 MiB (7%)
Title                            : 5.1 Hindi Audio By Ashish7(wall.e)
Language                         : Hindi

Comments are appreciated:)